<?xml version="1.0" encoding="UTF-8"?>
<!--Generator: Apple Native CoreSVG 175.5-->
<!DOCTYPE svg
PUBLIC "-//W3C//DTD SVG 1.1//EN"
       "http://www.w3.org/Graphics/SVG/1.1/DTD/svg11.dtd">
<svg version="1.1" xmlns="http://www.w3.org/2000/svg" xmlns:xlink="http://www.w3.org/1999/xlink" width="3300" height="2200">
 <!--glyph: "uni10026C.medium", point size: 100.0, font version: "18.0d12e2", template writer version: "101"-->
 <g id="Notes">
  <rect height="2200" id="artboard" style="fill:white;opacity:1" width="3300" x="0" y="0"/>
  <line style="fill:none;stroke:black;opacity:1;stroke-width:0.5;" x1="263" x2="3036" y1="292" y2="292"/>
  <text style="stroke:none;fill:black;font-family:sans-serif;font-size:13;font-weight:bold;" transform="matrix(1 0 0 1 263 322)">Weight/Scale Variations</text>
  <text style="stroke:none;fill:black;font-family:sans-serif;font-size:13;text-anchor:middle;" transform="matrix(1 0 0 1 559.711 322)">Ultralight</text>
  <text style="stroke:none;fill:black;font-family:sans-serif;font-size:13;text-anchor:middle;" transform="matrix(1 0 0 1 856.422 322)">Thin</text>
  <text style="stroke:none;fill:black;font-family:sans-serif;font-size:13;text-anchor:middle;" transform="matrix(1 0 0 1 1153.13 322)">Light</text>
  <text style="stroke:none;fill:black;font-family:sans-serif;font-size:13;text-anchor:middle;" transform="matrix(1 0 0 1 1449.84 322)">Regular</text>
  <text style="stroke:none;fill:black;font-family:sans-serif;font-size:13;text-anchor:middle;" transform="matrix(1 0 0 1 1746.56 322)">Medium</text>
  <text style="stroke:none;fill:black;font-family:sans-serif;font-size:13;text-anchor:middle;" transform="matrix(1 0 0 1 2043.27 322)">Semibold</text>
  <text style="stroke:none;fill:black;font-family:sans-serif;font-size:13;text-anchor:middle;" transform="matrix(1 0 0 1 2339.98 322)">Bold</text>
  <text style="stroke:none;fill:black;font-family:sans-serif;font-size:13;text-anchor:middle;" transform="matrix(1 0 0 1 2636.69 322)">Heavy</text>
  <text style="stroke:none;fill:black;font-family:sans-serif;font-size:13;text-anchor:middle;" transform="matrix(1 0 0 1 2933.4 322)">Black</text>
  <line style="fill:none;stroke:black;opacity:1;stroke-width:0.5;" x1="263" x2="3036" y1="1903" y2="1903"/>
  <g transform="matrix(1 0 0 1 263 1933)">
   <path d="M9.24805 0.830078C13.5547 0.830078 17.1387-2.74414 17.1387-7.05078C17.1387-11.3574 13.5449-14.9316 9.23828-14.9316C4.94141-14.9316 1.36719-11.3574 1.36719-7.05078C1.36719-2.74414 4.95117 0.830078 9.24805 0.830078ZM9.24805-0.654297C5.70312-0.654297 2.87109-3.49609 2.87109-7.05078C2.87109-10.6055 5.69336-13.4473 9.23828-13.4473C12.793-13.4473 15.6445-10.6055 15.6445-7.05078C15.6445-3.49609 12.8027-0.654297 9.24805-0.654297ZM5.6543-7.05078C5.6543-6.62109 5.95703-6.32812 6.40625-6.32812L8.50586-6.32812L8.50586-4.20898C8.50586-3.76953 8.79883-3.4668 9.22852-3.4668C9.67773-3.4668 9.9707-3.76953 9.9707-4.20898L9.9707-6.32812L12.0898-6.32812C12.5293-6.32812 12.832-6.62109 12.832-7.05078C12.832-7.49023 12.5293-7.79297 12.0898-7.79297L9.9707-7.79297L9.9707-9.90234C9.9707-10.3516 9.67773-10.6543 9.22852-10.6543C8.79883-10.6543 8.50586-10.3516 8.50586-9.90234L8.50586-7.79297L6.40625-7.79297C5.95703-7.79297 5.6543-7.49023 5.6543-7.05078Z"/>
  </g>
  <g transform="matrix(1 0 0 1 281.867 1933)">
   <path d="M11.709 2.91016C17.1582 2.91016 21.6699-1.61133 21.6699-7.05078C21.6699-12.5 17.1484-17.0117 11.6992-17.0117C6.25977-17.0117 1.74805-12.5 1.74805-7.05078C1.74805-1.61133 6.26953 2.91016 11.709 2.91016ZM11.709 1.25C7.09961 1.25 3.41797-2.44141 3.41797-7.05078C3.41797-11.6602 7.08984-15.3516 11.6992-15.3516C16.3086-15.3516 20.0098-11.6602 20.0098-7.05078C20.0098-2.44141 16.3184 1.25 11.709 1.25ZM7.17773-7.05078C7.17773-6.57227 7.50977-6.25 8.00781-6.25L10.8789-6.25L10.8789-3.36914C10.8789-2.88086 11.2109-2.53906 11.6895-2.53906C12.1777-2.53906 12.5195-2.87109 12.5195-3.36914L12.5195-6.25L15.4004-6.25C15.8887-6.25 16.2305-6.57227 16.2305-7.05078C16.2305-7.53906 15.8887-7.88086 15.4004-7.88086L12.5195-7.88086L12.5195-10.752C12.5195-11.25 12.1777-11.5918 11.6895-11.5918C11.2109-11.5918 10.8789-11.25 10.8789-10.752L10.8789-7.88086L8.00781-7.88086C7.50977-7.88086 7.17773-7.53906 7.17773-7.05078Z"/>
  </g>
  <g transform="matrix(1 0 0 1 305.646 1933)">
   <path d="M14.9707 5.66406C21.9336 5.66406 27.6953-0.0976562 27.6953-7.05078C27.6953-14.0137 21.9238-19.7754 14.9609-19.7754C8.00781-19.7754 2.25586-14.0137 2.25586-7.05078C2.25586-0.0976562 8.01758 5.66406 14.9707 5.66406ZM14.9707 3.84766C8.93555 3.84766 4.08203-1.01562 4.08203-7.05078C4.08203-13.0957 8.92578-17.9492 14.9609-17.9492C21.0059-17.9492 25.8691-13.0957 25.8691-7.05078C25.8691-1.01562 21.0156 3.84766 14.9707 3.84766ZM9.19922-7.05078C9.19922-6.5332 9.57031-6.17188 10.1172-6.17188L14.0625-6.17188L14.0625-2.2168C14.0625-1.67969 14.4336-1.29883 14.9512-1.29883C15.4883-1.29883 15.8594-1.66992 15.8594-2.2168L15.8594-6.17188L19.8145-6.17188C20.3516-6.17188 20.7324-6.5332 20.7324-7.05078C20.7324-7.59766 20.3613-7.96875 19.8145-7.96875L15.8594-7.96875L15.8594-11.9141C15.8594-12.4609 15.4883-12.8418 14.9512-12.8418C14.4336-12.8418 14.0625-12.4609 14.0625-11.9141L14.0625-7.96875L10.1172-7.96875C9.57031-7.96875 9.19922-7.59766 9.19922-7.05078Z"/>
  </g>
  <text style="stroke:none;fill:black;font-family:sans-serif;font-size:13;font-weight:bold;" transform="matrix(1 0 0 1 263 1953)">Design Variations</text>
  <text style="stroke:none;fill:black;font-family:sans-serif;font-size:13;" transform="matrix(1 0 0 1 263 1971)">Symbols are supported in up to nine weights and three scales.</text>
  <text style="stroke:none;fill:black;font-family:sans-serif;font-size:13;" transform="matrix(1 0 0 1 263 1989)">For optimal layout with text and other symbols, vertically align</text>
  <text style="stroke:none;fill:black;font-family:sans-serif;font-size:13;" transform="matrix(1 0 0 1 263 2007)">symbols with the adjacent text.</text>
  <line style="fill:none;stroke:#00AEEF;stroke-width:0.5;opacity:1.0;" x1="776" x2="776" y1="1919" y2="1933"/>
  <g transform="matrix(1 0 0 1 776 1933)">
   <path d="M3.31055 0.15625C3.82812 0.15625 4.08203-0.0390625 4.26758-0.585938L5.52734-4.0332L11.2891-4.0332L12.5488-0.585938C12.7344-0.0390625 12.9883 0.15625 13.4961 0.15625C14.0137 0.15625 14.3457-0.15625 14.3457-0.644531C14.3457-0.810547 14.3164-0.966797 14.2383-1.17188L9.6582-13.3691C9.43359-13.9648 9.0332-14.2676 8.4082-14.2676C7.80273-14.2676 7.39258-13.9746 7.17773-13.3789L2.59766-1.16211C2.51953-0.957031 2.49023-0.800781 2.49023-0.634766C2.49023-0.146484 2.80273 0.15625 3.31055 0.15625ZM6.00586-5.51758L8.37891-12.0898L8.42773-12.0898L10.8008-5.51758Z"/>
  </g>
  <line style="fill:none;stroke:#00AEEF;stroke-width:0.5;opacity:1.0;" x1="793.197" x2="793.197" y1="1919" y2="1933"/>
  <text style="stroke:none;fill:black;font-family:sans-serif;font-size:13;font-weight:bold;" transform="matrix(1 0 0 1 776 1953)">Margins</text>
  <text style="stroke:none;fill:black;font-family:sans-serif;font-size:13;" transform="matrix(1 0 0 1 776 1971)">Leading and trailing margins on the left and right side of each symbol</text>
  <text style="stroke:none;fill:black;font-family:sans-serif;font-size:13;" transform="matrix(1 0 0 1 776 1989)">can be adjusted by modifying the x-location of the margin guidelines.</text>
  <text style="stroke:none;fill:black;font-family:sans-serif;font-size:13;" transform="matrix(1 0 0 1 776 2007)">Modifications are automatically applied proportionally to all</text>
  <text style="stroke:none;fill:black;font-family:sans-serif;font-size:13;" transform="matrix(1 0 0 1 776 2025)">scales and weights.</text>
  <g transform="matrix(1 0 0 1 1289 1933)">
   <path d="M2.8418 1.86523L4.54102 3.57422C5.40039 4.44336 6.38672 4.38477 7.31445 3.35938L18.0078-8.42773L17.041-9.4043L6.42578 2.27539C6.07422 2.67578 5.74219 2.77344 5.27344 2.30469L4.10156 1.14258C3.63281 0.683594 3.74023 0.341797 4.14062-0.0195312L15.6152-10.8203L14.6387-11.7871L3.04688-0.898438C2.06055 0.0195312 1.98242 0.996094 2.8418 1.86523ZM9.25781-16.3281C8.83789-15.918 8.80859-15.3418 9.04297-14.9512C9.27734-14.5898 9.73633-14.3555 10.3809-14.5215C11.8457-14.8633 13.3691-14.9219 14.7949-13.9844L14.209-12.5293C13.8672-11.6992 14.043-11.1133 14.5801-10.5664L16.875-8.25195C17.3633-7.76367 17.7734-7.74414 18.3398-7.8418L19.4043-8.03711L20.0684-7.36328L20.0293-6.80664C19.9902-6.30859 20.1172-5.92773 20.6055-5.44922L21.3672-4.70703C21.8457-4.22852 22.4609-4.19922 22.9297-4.66797L25.8398-7.58789C26.3086-8.05664 26.2891-8.65234 25.8105-9.13086L25.0391-9.89258C24.5605-10.3711 24.1895-10.5273 23.7109-10.4883L23.1348-10.4395L22.4902-11.0742L22.7344-12.1973C22.8613-12.7637 22.7051-13.2031 22.1191-13.7891L19.9219-15.9766C16.582-19.2969 12.1484-19.2188 9.25781-16.3281ZM10.752-15.957C13.1836-17.7344 16.4746-17.4316 18.7012-15.2051L21.1328-12.793C21.3672-12.5586 21.4062-12.373 21.3379-12.0312L21.0156-10.5469L22.5195-9.0625L23.5059-9.12109C23.7598-9.13086 23.8379-9.11133 24.0332-8.91602L24.6094-8.33984L22.168-5.89844L21.5918-6.47461C21.3965-6.66992 21.3672-6.74805 21.377-7.01172L21.4453-7.98828L19.9512-9.47266L18.4277-9.21875C18.1055-9.15039 17.959-9.17969 17.7148-9.41406L15.7129-11.416C15.459-11.6504 15.4297-11.8164 15.5859-12.1875L16.4648-14.2773C14.9023-15.7324 12.8711-16.3574 10.8398-15.7617C10.6836-15.7227 10.625-15.8496 10.752-15.957Z"/>
  </g>
  <text style="stroke:none;fill:black;font-family:sans-serif;font-size:13;font-weight:bold;" transform="matrix(1 0 0 1 1289 1953)">Exporting</text>
  <text style="stroke:none;fill:black;font-family:sans-serif;font-size:13;" transform="matrix(1 0 0 1 1289 1971)">Symbols should be outlined when exporting to ensure the</text>
  <text style="stroke:none;fill:black;font-family:sans-serif;font-size:13;" transform="matrix(1 0 0 1 1289 1989)">design is preserved when submitting to Xcode.</text>
  <text id="template-version" style="stroke:none;fill:black;font-family:sans-serif;font-size:13;text-anchor:end;" transform="matrix(1 0 0 1 3036 1933)">Template v.4.0</text>
  <text style="stroke:none;fill:black;font-family:sans-serif;font-size:13;text-anchor:end;" transform="matrix(1 0 0 1 3036 1951)">Requires Xcode 14 or greater</text>
  <text id="descriptive-name" style="stroke:none;fill:black;font-family:sans-serif;font-size:13;text-anchor:end;" transform="matrix(1 0 0 1 3036 1969)">Generated from person.2.fill</text>
  <text style="stroke:none;fill:black;font-family:sans-serif;font-size:13;text-anchor:end;" transform="matrix(1 0 0 1 3036 1987)">Typeset at 100 points</text>
  <text style="stroke:none;fill:black;font-family:sans-serif;font-size:13;" transform="matrix(1 0 0 1 263 726)">Small</text>
  <text style="stroke:none;fill:black;font-family:sans-serif;font-size:13;" transform="matrix(1 0 0 1 263 1156)">Medium</text>
  <text style="stroke:none;fill:black;font-family:sans-serif;font-size:13;" transform="matrix(1 0 0 1 263 1586)">Large</text>
 </g>
 <g id="Guides">
  <g id="H-reference" style="fill:#27AAE1;stroke:none;" transform="matrix(1 0 0 1 339 696)">
   <path d="M0.993654 0L3.63775 0L29.3281-67.1323L30.0303-67.1323L30.0303-70.459L28.1226-70.459ZM11.6885-24.4799L46.9815-24.4799L46.2315-26.7285L12.4385-26.7285ZM55.1196 0L57.7637 0L30.6382-70.459L29.4326-70.459L29.4326-67.1323Z"/>
  </g>
  <line id="Baseline-S" style="fill:none;stroke:#27AAE1;opacity:1;stroke-width:0.5;" x1="263" x2="3036" y1="696" y2="696"/>
  <line id="Capline-S" style="fill:none;stroke:#27AAE1;opacity:1;stroke-width:0.5;" x1="263" x2="3036" y1="625.541" y2="625.541"/>
  <g id="H-reference" style="fill:#27AAE1;stroke:none;" transform="matrix(1 0 0 1 339 1126)">
   <path d="M0.993654 0L3.63775 0L29.3281-67.1323L30.0303-67.1323L30.0303-70.459L28.1226-70.459ZM11.6885-24.4799L46.9815-24.4799L46.2315-26.7285L12.4385-26.7285ZM55.1196 0L57.7637 0L30.6382-70.459L29.4326-70.459L29.4326-67.1323Z"/>
  </g>
  <line id="Baseline-M" style="fill:none;stroke:#27AAE1;opacity:1;stroke-width:0.5;" x1="263" x2="3036" y1="1126" y2="1126"/>
  <line id="Capline-M" style="fill:none;stroke:#27AAE1;opacity:1;stroke-width:0.5;" x1="263" x2="3036" y1="1055.54" y2="1055.54"/>
  <g id="H-reference" style="fill:#27AAE1;stroke:none;" transform="matrix(1 0 0 1 339 1556)">
   <path d="M0.993654 0L3.63775 0L29.3281-67.1323L30.0303-67.1323L30.0303-70.459L28.1226-70.459ZM11.6885-24.4799L46.9815-24.4799L46.2315-26.7285L12.4385-26.7285ZM55.1196 0L57.7637 0L30.6382-70.459L29.4326-70.459L29.4326-67.1323Z"/>
  </g>
  <line id="Baseline-L" style="fill:none;stroke:#27AAE1;opacity:1;stroke-width:0.5;" x1="263" x2="3036" y1="1556" y2="1556"/>
  <line id="Capline-L" style="fill:none;stroke:#27AAE1;opacity:1;stroke-width:0.5;" x1="263" x2="3036" y1="1485.54" y2="1485.54"/>
  <line id="left-margin-Regular-M" style="fill:none;stroke:#00AEEF;stroke-width:0.5;opacity:1.0;" x1="1370.85" x2="1370.85" y1="1030.79" y2="1150.12"/>
  <line id="right-margin-Regular-M" style="fill:none;stroke:#00AEEF;stroke-width:0.5;opacity:1.0;" x1="1528.83" x2="1528.83" y1="1030.79" y2="1150.12"/>
 </g>
 <g id="Symbols">
  <g id="Black-L" transform="matrix(1 0 0 1 2829.97 1556)">
   <path d="M98.5975 23.8585L175.022 23.8585C186.95 23.8585 190.78 19.7119 190.78 13.0556C190.78-2.97281 169.484-24.8419 136.799-24.8419C104.135-24.8419 82.8384-2.97281 82.8384 13.0556C82.8384 19.7119 86.6677 23.8585 98.5975 23.8585ZM136.802-35.6931C151.368-35.6931 162.957-48.2989 162.957-64.1929C162.957-79.4664 151.248-92.183 136.802-92.183C122.376-92.183 110.605-79.3832 110.666-64.1513C110.724-48.2989 122.256-35.6931 136.802-35.6931ZM29.5821 23.9169L74.5857 23.9169C67.326 13.7339 72.6956-5.05316 88.8244-18.2555C82.2379-22.0613 73.1998-24.9468 63.034-24.9468C35.7406-24.9468 16.084-4.84357 16.084 11.1129C16.084 19.0982 19.3932 23.9169 29.5821 23.9169ZM63.0364-34.3051C75.717-34.3051 85.8396-45.3234 85.8396-59.1288C85.8396-72.4527 75.5966-83.5244 63.0364-83.5244C50.497-83.5244 40.232-72.3902 40.2928-59.0872C40.3512-45.3234 50.3766-34.3051 63.0364-34.3051Z"/>
  </g>
  <g id="Heavy-L" transform="matrix(1 0 0 1 2533.62 1556)">
   <path d="M97.7172 23.4989L174.923 23.4989C186.289 23.4989 190.045 19.6849 190.045 13.2993C190.045-2.78037 168.982-24.779 136.305-24.779C103.658-24.779 82.5903-2.78037 82.5903 13.2993C82.5903 19.6849 86.3462 23.4989 97.7172 23.4989ZM136.316-35.7311C150.653-35.7311 162.231-48.209 162.231-64.0627C162.231-79.367 150.547-91.8244 136.316-91.8244C122.116-91.8244 110.371-79.2462 110.427-64.0023C110.471-48.209 122.01-35.7311 136.316-35.7311ZM28.956 23.5435L74.8012 23.5435C67.7036 13.6483 73.6115-5.21265 89.1504-17.8175C82.4719-21.8676 73.4132-24.9065 62.8294-24.9065C35.2868-24.9065 16.084-4.60764 16.084 11.7012C16.084 19.1401 19.343 23.5435 28.956 23.5435ZM62.8406-34.3338C75.3183-34.3338 85.4298-45.2335 85.4298-59.0075C85.4298-72.3571 75.2122-83.1973 62.8406-83.1973C50.4991-83.1973 40.2458-72.2665 40.3016-58.9471C40.3462-45.2335 50.393-34.3338 62.8406-34.3338Z"/>
  </g>
  <g id="Bold-L" transform="matrix(1 0 0 1 2237.36 1556)">
   <path d="M96.5665 23.0458L174.912 23.0458C185.482 23.0458 189.153 19.6466 189.153 13.5692C189.153-2.55707 168.367-24.6873 135.72-24.6873C103.111-24.6873 82.3127-2.55707 82.3127 13.5692C82.3127 19.6466 85.984 23.0458 96.5665 23.0458ZM135.747-35.7549C149.836-35.7549 161.354-48.079 161.354-63.8715C161.354-79.1621 149.738-91.3565 135.747-91.3565C121.794-91.3565 110.109-79.0101 110.164-63.7955C110.194-48.079 121.696-35.7549 135.747-35.7549ZM28.1352 23.075L75.2564 23.075C68.3213 13.7346 74.6816-5.20371 89.5874-17.2124C82.8085-21.5921 73.6895-24.8454 62.5683-24.8454C34.7631-24.8454 16.084-4.36781 16.084 12.3566C16.084 19.1789 19.2815 23.075 28.1352 23.075ZM62.5948-34.3497C74.8563-34.3497 84.9152-45.1034 84.9152-58.8315C84.9152-72.1672 74.7582-82.7752 62.5948-82.7752C50.4694-82.7752 40.2612-72.0533 40.3168-58.7555C40.346-45.1034 50.3713-34.3497 62.5948-34.3497Z"/>
  </g>
  <g id="Semibold-L" transform="matrix(1 0 0 1 1940.96 1556)">
   <path d="M95.7732 22.7334L174.905 22.7334C184.925 22.7334 188.538 19.6202 188.538 13.7553C188.538-2.40312 167.944-24.624 135.317-24.624C102.734-24.624 82.1214-2.40312 82.1214 13.7553C82.1214 19.6202 85.7342 22.7334 95.7732 22.7334ZM135.354-35.7712C149.273-35.7712 160.75-47.9893 160.75-63.7397C160.75-79.0208 149.18-91.0338 135.354-91.0338C121.571-91.0338 109.928-78.8473 109.984-63.653C110.002-47.9893 121.479-35.7712 135.354-35.7712ZM27.5694 22.752L75.5702 22.752C68.7472 13.794 75.4193-5.19754 89.8886-16.7953C83.0406-21.4022 73.8799-24.8032 62.3884-24.8032C34.4021-24.8032 16.084-4.20247 16.084 12.8085C16.084 19.2057 19.2391 22.752 27.5694 22.752ZM62.4254-34.3607C74.5378-34.3607 84.5604-45.0138 84.5604-58.7102C84.5604-72.0363 74.4452-82.4843 62.4254-82.4843C50.4489-82.4843 40.2718-71.9062 40.3273-58.6235C40.3459-45.0138 50.3563-34.3607 62.4254-34.3607Z"/>
  </g>
  <g id="Medium-L" transform="matrix(1 0 0 1 1644.48 1556)">
   <path d="M95.1717 22.4965L174.899 22.4965C184.503 22.4965 188.072 19.6002 188.072 13.8964C188.072-2.2864 167.622-24.576 135.011-24.576C102.448-24.576 81.9763-2.2864 81.9763 13.8964C81.9763 19.6002 85.5449 22.4965 95.1717 22.4965ZM135.056-35.7837C148.846-35.7837 160.291-47.9213 160.291-63.6398C160.291-78.9137 148.758-90.7892 135.056-90.7892C121.403-90.7892 109.791-78.7239 109.847-63.5449C109.857-47.9213 121.314-35.7837 135.056-35.7837ZM27.1404 22.507L75.8081 22.507C69.0701 13.8391 75.9787-5.19286 90.117-16.479C83.2165-21.2581 74.0243-24.7713 62.2519-24.7713C34.1283-24.7713 16.084-4.0771 16.084 13.1511C16.084 19.226 19.207 22.507 27.1404 22.507ZM62.2969-34.3691C74.2962-34.3691 84.2914-44.9458 84.2914-58.6183C84.2914-71.9371 74.2078-82.2636 62.2969-82.2636C50.4334-82.2636 40.2799-71.7947 40.3353-58.5234C40.3458-44.9458 50.3449-34.3691 62.2969-34.3691Z"/>
  </g>
  <g id="Regular-L" transform="matrix(1 0 0 1 1348.07 1556)">
   <path d="M94.3871 22.1876L174.891 22.1876C183.953 22.1876 187.464 19.5741 187.464 14.0805C187.464-2.13414 167.203-24.5134 134.613-24.5134C102.075-24.5134 81.7871-2.13414 81.7871 14.0805C81.7871 19.5741 85.2979 22.1876 94.3871 22.1876ZM134.668-35.7999C148.289-35.7999 159.694-47.8327 159.694-63.5095C159.694-78.7739 148.206-90.4701 134.668-90.4701C121.183-90.4701 109.612-78.5629 109.668-63.4039C109.668-47.8327 121.1-35.7999 134.668-35.7999ZM26.5807 22.1876L76.1184 22.1876C69.4913 13.8979 76.7082-5.18676 90.4149-16.0664C83.4461-21.0703 74.2127-24.7296 62.074-24.7296C33.7713-24.7296 16.084-3.91358 16.084 13.598C16.084 19.2525 19.165 22.1876 26.5807 22.1876ZM62.1293-34.38C73.9812-34.38 83.9405-44.8571 83.9405-58.4983C83.9405-71.8076 73.8983-81.9758 62.1293-81.9758C50.4131-81.9758 40.2904-71.6493 40.3457-58.3928C40.3457-44.8571 50.3301-34.38 62.1293-34.38Z"/>
  </g>
  <g id="Light-L" transform="matrix(1 0 0 1 1051.61 1556)">
   <path d="M93.2038 21.825L175.597 21.825C183.476 21.825 186.967 19.5169 186.967 14.0614C186.967-2.07689 166.821-24.3608 134.384-24.3608C101.98-24.3608 81.7871-2.07689 81.7871 14.0614C81.7871 19.5169 85.2788 21.825 93.2038 21.825ZM134.477-35.6663C148.175-35.6663 159.236-47.6227 159.236-63.185C159.236-78.106 148.034-89.993 134.477-89.993C120.954-89.993 109.612-77.9712 109.706-63.1176C109.706-47.6227 120.813-35.6663 134.477-35.6663ZM25.7219 21.825L77.6453 21.825C70.8845 15.1957 77.0327-3.85079 90.9302-15.2457C83.9805-20.6504 74.4799-24.6151 61.845-24.6151C33.6568-24.6151 16.084-4.08535 16.084 13.5789C16.084 19.1952 19.1269 21.825 25.7219 21.825ZM61.9384-34.2655C73.8667-34.2655 83.5398-44.6472 83.5398-58.212C83.5398-71.216 73.7265-81.575 61.9384-81.575C50.1841-81.575 40.2904-71.1149 40.3839-58.1447C40.3839-44.6472 50.0438-34.2655 61.9384-34.2655Z"/>
  </g>
  <g id="Thin-L" transform="matrix(1 0 0 1 755.225 1556)">
   <path d="M91.6388 21.3454L176.531 21.3454C182.845 21.3454 186.311 19.4412 186.311 14.0361C186.311-2.00116 166.316-24.1588 134.081-24.1588C101.854-24.1588 81.7871-2.00116 81.7871 14.0361C81.7871 19.4412 85.2536 21.3454 91.6388 21.3454ZM134.225-35.4896C148.023-35.4896 158.63-47.3451 158.63-62.7559C158.63-77.2225 147.807-89.362 134.225-89.362C120.651-89.362 109.612-77.1887 109.756-62.739C109.756-47.3451 120.435-35.4896 134.225-35.4896ZM24.586 21.3454L79.6646 21.3454C72.7271 16.9121 77.4618-2.08387 91.6118-14.1603C84.6872-20.0951 74.8333-24.4636 61.5421-24.4636C33.5053-24.4636 16.084-4.31253 16.084 13.5536C16.084 19.1195 19.0764 21.3454 24.586 21.3454ZM61.686-34.114C73.7153-34.114 83.0097-44.3695 83.0097-57.8334C83.0097-70.4335 73.4993-81.045 61.686-81.045C49.8812-81.045 40.2904-70.4082 40.4343-57.8165C40.4343-44.3695 49.6652-34.114 61.686-34.114Z"/>
  </g>
  <g id="Ultralight-L" transform="matrix(1 0 0 1 458.682 1556)">
   <path d="M90.8372 21.0997L177.01 21.0997C182.521 21.0997 185.975 19.4024 185.975 14.0232C185.975-1.96238 166.058-24.0554 133.926-24.0554C101.789-24.0554 81.7871-1.96238 81.7871 14.0232C81.7871 19.4024 85.2406 21.0997 90.8372 21.0997ZM134.096-35.3991C147.946-35.3991 158.319-47.2029 158.319-62.5361C158.319-76.77 147.691-89.0387 134.096-89.0387C120.496-89.0387 109.612-76.788 109.782-62.5451C109.782-47.2029 120.241-35.3991 134.096-35.3991ZM24.0042 21.0997L80.6989 21.0997C73.6709 17.7913 77.6816-1.17885 91.9609-13.6044C85.0492-19.8107 75.0143-24.3861 61.3869-24.3861C33.4277-24.3861 16.084-4.42889 16.084 13.5407C16.084 19.0807 19.0505 21.0997 24.0042 21.0997ZM61.5567-34.0364C73.6377-34.0364 82.7382-44.2273 82.7382-57.6395C82.7382-70.0327 73.383-80.7735 61.5567-80.7735C49.726-80.7735 40.2904-70.0462 40.4602-57.6485C40.4602-44.2273 49.4713-34.0364 61.5567-34.0364Z"/>
  </g>
  <g id="Black-M" transform="matrix(1 0 0 1 2852.98 1126)">
   <path d="M76.9839 10.8083L135.777 10.8083C145.342 10.8083 148.37 7.3514 148.37 1.96698C148.37-10.3965 131.686-27.2152 106.378-27.2152C81.0749-27.2152 64.3916-10.3965 64.3916 1.96698C64.3916 7.3514 67.4188 10.8083 76.9839 10.8083ZM106.377-35.5379C117.871-35.5379 126.812-45.4038 126.812-57.7366C126.812-69.4967 117.758-79.5972 106.377-79.5972C95.0022-79.5972 85.8919-69.4747 85.9485-57.7256C86.0056-45.4038 94.8889-35.5379 106.377-35.5379ZM23.3401 10.8654L57.8063 10.8654C52.0246 2.95396 55.5772-11.5325 68.6056-22.3443C63.5845-25.1371 56.5637-27.2821 48.9799-27.2821C28.0643-27.2821 12.4609-11.9143 12.4609 0.165745C12.4609 6.8167 15.0627 10.8654 23.3401 10.8654ZM48.9793-34.4732C58.9882-34.4732 66.8014-43.0985 66.8014-53.8109C66.8014-64.0698 58.8749-72.8724 48.9793-72.8724C39.0893-72.8724 31.1576-64.0533 31.2141-53.7999C31.2712-43.0985 38.9759-34.4732 48.9793-34.4732Z"/>
  </g>
  <g id="Heavy-M" transform="matrix(1 0 0 1 2556.61 1126)">
   <path d="M76.2325 10.4903L135.616 10.4903C144.74 10.4903 147.697 7.33026 147.697 2.20697C147.697-10.2137 131.231-27.1678 105.916-27.1678C80.6174-27.1678 64.1491-10.2137 64.1491 2.20697C64.1491 7.33026 67.1063 10.4903 76.2325 10.4903ZM105.92-35.5874C117.182-35.5874 126.144-45.3352 126.144-57.6393C126.144-69.4611 117.088-79.2907 105.92-79.2907C94.7694-79.2907 85.6629-69.3954 85.711-57.6064C85.7546-45.3352 94.6754-35.5874 105.92-35.5874ZM22.8074 10.5339L57.8761 10.5339C52.2651 2.75053 56.4426-11.8117 68.8768-21.9918C63.7639-24.9865 56.7477-27.2533 48.801-27.2533C27.6312-27.2533 12.4609-11.6678 12.4609 0.742602C12.4609 6.86293 15.0171 10.5339 22.8074 10.5339ZM48.8055-34.5118C58.6091-34.5118 66.4378-43.03 66.4378-53.7186C66.4378-64.031 58.515-72.5896 48.8055-72.5896C39.1125-72.5896 31.171-63.9817 31.2192-53.6858C31.2628-43.03 39.0184-34.5118 48.8055-34.5118Z"/>
  </g>
  <g id="Bold-M" transform="matrix(1 0 0 1 2260.28 1126)">
   <path d="M75.3919 10.1345L135.435 10.1345C144.065 10.1345 146.944 7.3066 146.944 2.47543C146.944-10.0091 130.721-27.1148 105.399-27.1148C80.1057-27.1148 63.8777-10.0091 63.8777 2.47543C63.8777 7.3066 66.7567 10.1345 75.3919 10.1345ZM105.409-35.6427C116.411-35.6427 125.397-45.2586 125.397-57.5303C125.397-69.4213 116.339-78.9479 105.409-78.9479C94.509-78.9479 85.4066-69.3068 85.4454-57.4731C85.474-45.2586 94.4365-35.6427 105.409-35.6427ZM22.2114 10.163L57.9542 10.163C52.5342 2.52297 57.4107-12.124 69.1801-21.5975C63.9646-24.818 56.9535-27.2211 48.6009-27.2211C27.1468-27.2211 12.4609-11.3921 12.4609 1.3879C12.4609 6.91464 14.9662 10.163 22.2114 10.163ZM48.6111-34.5549C58.1849-34.5549 66.031-42.9533 66.031-53.6154C66.031-63.9875 58.1124-72.2733 48.6111-72.2733C39.1385-72.2733 31.1861-63.9017 31.2249-53.5582C31.2535-42.9533 39.066-34.5549 48.6111-34.5549Z"/>
  </g>
  <g id="Semibold-M" transform="matrix(1 0 0 1 1963.82 1126)">
   <path d="M74.8124 9.88916L135.311 9.88916C143.6 9.88916 146.425 7.2903 146.425 2.66051C146.425-9.86814 130.37-27.0782 105.043-27.0782C79.7529-27.0782 63.6907-9.86814 63.6907 2.66051C63.6907 7.2903 66.5158 9.88916 74.8124 9.88916ZM105.057-35.6809C115.88-35.6809 124.882-45.2057 124.882-57.4552C124.882-69.3938 115.822-78.7116 105.057-78.7116C94.3295-78.7116 85.23-69.2456 85.2623-57.3812C85.2805-45.2057 94.2718-35.6809 105.057-35.6809ZM21.8005 9.90731L58.008 9.90731C52.7197 2.36609 58.0781-12.3393 69.3892-21.3257C64.1029-24.7019 57.0955-27.1989 48.4629-27.1989C26.8128-27.1989 12.4609-11.202 12.4609 1.83276C12.4609 6.95029 14.9311 9.90731 21.8005 9.90731ZM48.4771-34.5846C57.8925-34.5846 65.7506-42.9004 65.7506-53.5443C65.7506-63.9576 57.8349-72.0552 48.4771-72.0552C39.1564-72.0552 31.1965-63.8464 31.2289-53.4702C31.247-42.9004 39.0987-34.5846 48.4771-34.5846Z"/>
  </g>
  <g id="Medium-M" transform="matrix(1 0 0 1 1667.31 1126)">
   <path d="M74.373 9.70316L135.216 9.70316C143.248 9.70316 146.032 7.27793 146.032 2.80084C146.032-9.76122 130.104-27.0505 104.773-27.0505C79.4854-27.0505 63.5489-9.76122 63.5489 2.80084C63.5489 7.27793 66.3331 9.70316 74.373 9.70316ZM104.79-35.7098C115.477-35.7098 124.492-45.1656 124.492-57.3983C124.492-69.373 115.43-78.5324 104.79-78.5324C94.1933-78.5324 85.096-69.1993 85.1235-57.3115C85.1338-45.1656 94.147-35.7098 104.79-35.7098ZM21.489 9.71344L58.0489 9.71344C52.8604 2.24714 58.5841-12.5025 69.5478-21.1195C64.2078-24.6139 57.2031-27.182 48.3583-27.182C26.5596-27.182 12.4609-11.0579 12.4609 2.17008C12.4609 6.97733 14.9045 9.71344 21.489 9.71344ZM48.3755-34.6072C57.6708-34.6072 65.538-42.8603 65.538-53.4903C65.538-63.9349 57.6244-71.8899 48.3755-71.8899C39.1699-71.8899 31.2044-63.8046 31.2319-53.4035C31.2421-42.8603 39.1236-34.6072 48.3755-34.6072Z"/>
  </g>
  <g id="Regular-M" transform="matrix(1 0 0 1 1370.85 1126)">
   <path d="M73.7999 9.46057L135.093 9.46057C142.788 9.46057 145.519 7.2618 145.519 2.98388C145.519-9.62176 129.757-27.0143 104.421-27.0143C79.1365-27.0143 63.3639-9.62176 63.3639 2.98388C63.3639 7.2618 66.0947 9.46057 73.7999 9.46057ZM104.442-35.7475C114.951-35.7475 123.982-45.1133 123.982-57.3241C123.982-69.3459 114.919-78.2986 104.442-78.2986C94.0158-78.2986 84.9213-69.1388 84.9424-57.2205C84.9424-45.1133 93.9841-35.7475 104.442-35.7475ZM21.0826 9.46057L58.1021 9.46057C53.0439 2.09198 59.2442-12.7154 69.7546-20.8507C64.3446-24.499 57.3434-27.16 48.2218-27.16C26.2293-27.16 12.4609-10.8699 12.4609 2.61005C12.4609 7.01259 14.8697 9.46057 21.0826 9.46057ZM48.2429-34.6366C57.3816-34.6366 65.2607-42.8081 65.2607-53.42C65.2607-63.9052 57.35-71.6742 48.2429-71.6742C39.1876-71.6742 31.2146-63.75 31.2358-53.3164C31.2358-42.8081 39.156-34.6366 48.2429-34.6366Z"/>
  </g>
  <g id="Light-M" transform="matrix(1 0 0 1 1074.37 1126)">
   <path d="M72.7391 9.13546L135.726 9.13546C142.36 9.13546 145.074 7.21047 145.074 2.96677C145.074-9.57043 129.414-26.8774 104.215-26.8774C79.0509-26.8774 63.3639-9.57043 63.3639 2.96677C63.3639 7.21047 66.0776 9.13546 72.7391 9.13546ZM104.271-35.6278C114.848-35.6278 123.572-44.9251 123.572-57.0332C123.572-68.747 114.765-77.8709 104.271-77.8709C93.8104-77.8709 84.9213-68.6084 84.9766-56.9639C84.9766-44.9251 93.7275-35.6278 104.271-35.6278ZM20.3126 9.13546L59.471 9.13546C54.293 3.25553 59.5351-11.5177 70.2166-20.1149C64.8238-24.1226 57.583-27.0574 48.0165-27.0574C26.1266-27.0574 12.4609-11.0239 12.4609 2.59294C12.4609 6.96125 14.8355 9.13546 20.3126 9.13546ZM48.0718-34.5339C57.279-34.5339 64.9013-42.6198 64.9013-53.1633C64.9013-63.3748 57.196-71.3149 48.0718-71.3149C38.9823-71.3149 31.2146-63.2709 31.27-53.094C31.27-42.6198 38.8993-34.5339 48.0718-34.5339Z"/>
  </g>
  <g id="Thin-M" transform="matrix(1 0 0 1 777.949 1126)">
   <path d="M71.336 8.70548L136.564 8.70548C141.794 8.70548 144.485 7.14258 144.485 2.94414C144.485-9.50254 128.962-26.6964 103.944-26.6964C78.9378-26.6964 63.3639-9.50254 63.3639 2.94414C63.3639 7.14258 66.055 8.70548 71.336 8.70548ZM104.044-35.4693C114.713-35.4693 123.029-44.6762 123.029-56.6484C123.029-67.9549 114.562-77.3051 104.044-77.3051C93.5389-77.3051 84.9213-67.9068 85.0219-56.6244C85.0219-44.6762 93.388-35.4693 104.044-35.4693ZM19.2943 8.70548L61.2814 8.70548C55.945 4.79441 59.9198-9.93352 70.8276-19.1418C65.4574-23.6247 57.8998-26.9216 47.7449-26.9216C25.9908-26.9216 12.4609-11.2275 12.4609 2.57031C12.4609 6.89336 14.7902 8.70548 19.2943 8.70548ZM47.8455-34.3981C57.1432-34.3981 64.4261-42.3709 64.4261-52.8238C64.4261-62.6733 56.9923-70.8397 47.8455-70.8397C38.7107-70.8397 31.2146-62.6372 31.3152-52.7998C31.3152-42.3709 38.5599-34.3981 47.8455-34.3981Z"/>
  </g>
  <g id="Ultralight-M" transform="matrix(1 0 0 1 481.389 1126)">
   <path d="M70.6173 8.48524L136.992 8.48524C141.504 8.48524 144.184 7.10781 144.184 2.93255C144.184-9.46777 128.73-26.6037 103.805-26.6037C78.8798-26.6037 63.3639-9.46777 63.3639 2.93255C63.3639 7.10781 66.0434 8.48524 70.6173 8.48524ZM103.928-35.3882C114.643-35.3882 122.75-44.5487 122.75-56.4514C122.75-67.5492 114.457-77.0153 103.928-77.0153C93.3998-77.0153 84.9213-67.5475 85.0451-56.4506C85.0451-44.5487 93.2141-35.3882 103.928-35.3882ZM18.7726 8.48524L62.2087 8.48524C56.7912 5.58261 60.1169-9.12213 71.1406-18.6434C65.782-23.3697 58.0621-26.852 47.6058-26.852C25.9213-26.852 12.4609-11.3319 12.4609 2.55872C12.4609 6.85859 14.7671 8.48524 18.7726 8.48524ZM47.7296-34.3286C57.0736-34.3286 64.1827-42.2434 64.1827-52.65C64.1827-62.3139 56.888-70.5962 47.7296-70.5962C38.5717-70.5962 31.2146-62.3127 31.3384-52.6491C31.3384-42.2434 38.386-34.3286 47.7296-34.3286Z"/>
  </g>
  <g id="Black-S" transform="matrix(1 0 0 1 2870.29 696)">
   <path d="M60.498 0.927734L106.494 0.927734C114.062 0.927734 116.455-1.85547 116.455-6.15234C116.455-15.8203 103.32-28.9551 83.4961-28.9551C63.6719-28.9551 50.5371-15.8203 50.5371-6.15234C50.5371-1.85547 52.9297 0.927734 60.498 0.927734ZM83.4961-35.4492C92.5781-35.4492 99.5605-43.2129 99.5605-52.8809C99.5605-62.0605 92.4805-70.0684 83.4961-70.0684C74.5117-70.0684 67.3828-62.0605 67.4316-52.8809C67.4805-43.2129 74.4141-35.4492 83.4961-35.4492ZM18.4082 0.976562L45.3613 0.976562C40.7715-5.17578 43.3105-16.5039 53.7109-25.1953C49.8047-27.3438 44.2871-29.0039 38.4277-29.0039C22.1191-29.0039 9.76562-17.041 9.76562-7.66602C9.76562-2.29492 11.8164 0.976562 18.4082 0.976562ZM38.4277-34.6191C46.3379-34.6191 52.4414-41.4062 52.4414-49.8047C52.4414-57.8125 46.2402-64.7949 38.4277-64.7949C30.6152-64.7949 24.4141-57.8125 24.4629-49.8047C24.5117-41.4062 30.5176-34.6191 38.4277-34.6191Z"/>
  </g>
  <g id="Heavy-S" transform="matrix(1 0 0 1 2573.84 696)">
   <path d="M59.991 0.697245L106.275 0.697245C113.602 0.697245 115.936-1.86699 115.936-5.9449C115.936-15.6705 102.975-28.932 83.1273-28.932C63.2916-28.932 50.3297-15.6705 50.3297-5.9449C50.3297-1.86699 52.6646 0.697245 59.991 0.697245ZM83.1273-35.5068C92.0019-35.5068 99.0419-43.1783 99.0419-52.8348C99.0419-62.1066 91.9273-69.8609 83.1273-69.8609C74.3389-69.8609 67.1869-62.0605 67.2242-52.8117C67.2615-43.1783 74.2642-35.5068 83.1273-35.5068ZM18.0509 0.734549L45.2461 0.734549C40.8176-5.49847 44.0135-16.8957 53.8838-24.9879C49.8969-27.2631 44.4139-28.9924 38.301-28.9924C21.7619-28.9924 9.76562-16.8105 9.76562-7.17046C9.76562-2.24882 11.7818 0.734549 18.0509 0.734549ZM38.301-34.6652C46.0267-34.6652 52.1763-41.3717 52.1763-49.7586C52.1763-57.8471 45.9521-64.599 38.301-64.599C30.6613-64.599 24.4256-57.8125 24.4629-49.7355C24.5002-41.3717 30.5867-34.6652 38.301-34.6652Z"/>
  </g>
  <g id="Bold-S" transform="matrix(1 0 0 1 2277.42 696)">
   <path d="M59.4238 0.439453L106.03 0.439453C113.086 0.439453 115.356-1.87988 115.356-5.71289C115.356-15.5029 102.588-28.9062 82.7148-28.9062C62.8662-28.9062 50.0977-15.5029 50.0977-5.71289C50.0977-1.87988 52.3682 0.439453 59.4238 0.439453ZM82.7148-35.5713C91.3574-35.5713 98.4619-43.1396 98.4619-52.7832C98.4619-62.1582 91.3086-69.6289 82.7148-69.6289C74.1455-69.6289 66.9678-62.0605 66.9922-52.7344C67.0166-43.1396 74.0967-35.5713 82.7148-35.5713ZM17.6514 0.463867L45.1172 0.463867C40.8691-5.85938 44.7998-17.334 54.0771-24.7559C50-27.1729 44.5557-28.9795 38.1592-28.9795C21.3623-28.9795 9.76562-16.5527 9.76562-6.61621C9.76562-2.19727 11.7432 0.463867 17.6514 0.463867ZM38.1592-34.7168C45.6787-34.7168 51.8799-41.333 51.8799-49.707C51.8799-57.8857 45.6299-64.3799 38.1592-64.3799C30.7129-64.3799 24.4385-57.8125 24.4629-49.6582C24.4873-41.333 30.6641-34.7168 38.1592-34.7168Z"/>
  </g>
  <g id="Semibold-S" transform="matrix(1 0 0 1 1980.91 696)">
   <path d="M59.0328 0.261719L105.861 0.261719C112.73 0.261719 114.957-1.88877 114.957-5.55293C114.957-15.3874 102.321-28.8885 82.4305-28.8885C62.5729-28.8885 49.9377-15.3874 49.9377-5.55293C49.9377-1.88877 52.1638 0.261719 59.0328 0.261719ZM82.4305-35.6157C90.9131-35.6157 98.062-43.113 98.062-52.7477C98.062-62.1938 90.882-69.4689 82.4305-69.4689C74.0122-69.4689 66.8167-62.0605 66.8322-52.6811C66.8478-43.113 73.9812-35.6157 82.4305-35.6157ZM17.3759 0.277246L45.0283 0.277246C40.9047-6.1082 45.3419-17.6361 54.2104-24.5959C50.0711-27.1106 44.6534-28.9706 38.0614-28.9706C21.0868-28.9706 9.76562-16.375 9.76562-6.23408C9.76562-2.16172 11.7165 0.277246 17.3759 0.277246ZM38.0614-34.7523C45.4388-34.7523 51.6755-41.3063 51.6755-49.6715C51.6755-57.9124 45.4077-64.2288 38.0614-64.2288C30.7484-64.2288 24.4474-57.8125 24.4629-49.6049C24.4784-41.3063 30.7174-34.7523 38.0614-34.7523Z"/>
  </g>
  <g id="Medium-S" transform="matrix(1 0 0 1 1684.35 696)">
   <path d="M58.7363 0.126953L105.733 0.126953C112.461 0.126953 114.653-1.89551 114.653-5.43164C114.653-15.2998 102.119-28.875 82.2148-28.875C62.3506-28.875 49.8164-15.2998 49.8164-5.43164C49.8164-1.89551 52.0088 0.126953 58.7363 0.126953ZM82.2148-35.6494C90.5762-35.6494 97.7588-43.0928 97.7588-52.7207C97.7588-62.2207 90.5586-69.3477 82.2148-69.3477C73.9111-69.3477 66.7021-62.0605 66.7109-52.6406C66.7197-43.0928 73.8936-35.6494 82.2148-35.6494ZM17.167 0.135742L44.9609 0.135742C40.9316-6.29688 45.7529-17.8652 54.3115-24.4746C50.125-27.0635 44.7275-28.9639 37.9873-28.9639C20.8779-28.9639 9.76562-16.2402 9.76562-5.94434C9.76562-2.13477 11.6963 0.135742 17.167 0.135742ZM37.9873-34.7793C45.2568-34.7793 51.5205-41.2861 51.5205-49.6445C51.5205-57.9326 45.2393-64.1143 37.9873-64.1143C30.7754-64.1143 24.4541-57.8125 24.4629-49.5645C24.4717-41.2861 30.7578-34.7793 37.9873-34.7793Z"/>
  </g>
  <g id="Regular-S" transform="matrix(1 0 0 1 1387.83 696)">
   <path d="M58.3496-0.0488281L105.566-0.0488281C112.109-0.0488281 114.258-1.9043 114.258-5.27344C114.258-15.1855 101.855-28.8574 81.9336-28.8574C62.0605-28.8574 49.6582-15.1855 49.6582-5.27344C49.6582-1.9043 51.8066-0.0488281 58.3496-0.0488281ZM81.9336-35.6934C90.1367-35.6934 97.3633-43.0664 97.3633-52.6855C97.3633-62.2559 90.1367-69.1895 81.9336-69.1895C73.7793-69.1895 66.5527-62.0605 66.5527-52.5879C66.5527-43.0664 73.7793-35.6934 81.9336-35.6934ZM16.8945-0.0488281L44.873-0.0488281C40.9668-6.54297 46.2891-18.1641 54.4434-24.3164C50.1953-27.002 44.8242-28.9551 37.8906-28.9551C20.6055-28.9551 9.76562-16.0645 9.76562-5.56641C9.76562-2.09961 11.6699-0.0488281 16.8945-0.0488281ZM37.8906-34.8145C45.0195-34.8145 51.3184-41.2598 51.3184-49.6094C51.3184-57.959 45.0195-63.9648 37.8906-63.9648C30.8105-63.9648 24.4629-57.8125 24.4629-49.5117C24.4629-41.2598 30.8105-34.8145 37.8906-34.8145Z"/>
  </g>
  <g id="Light-S" transform="matrix(1 0 0 1 1091.32 696)">
   <path d="M57.4111-0.336424L106.126-0.336424C111.731-0.336424 113.864-1.94971 113.864-5.28857C113.864-15.1401 101.553-28.7363 81.752-28.7363C61.9849-28.7363 49.6582-15.1401 49.6582-5.28857C49.6582-1.94971 51.7915-0.336424 57.4111-0.336424ZM81.7822-35.5874C90.0459-35.5874 97-42.8999 97-52.4282C97-61.7261 90.0005-68.811 81.7822-68.811C73.5977-68.811 66.5527-61.5913 66.583-52.3608C66.583-42.8999 73.5522-35.5874 81.7822-35.5874ZM16.2134-0.336424L46.084-0.336424C42.0718-5.51368 46.5464-17.1045 54.852-23.6655C50.6191-26.6689 45.0361-28.8643 37.709-28.8643C20.5146-28.8643 9.76562-16.2007 9.76562-5.58154C9.76562-2.14502 11.6396-0.336424 16.2134-0.336424ZM37.7393-34.7236C44.9287-34.7236 51.0005-41.0933 51.0005-49.3823C51.0005-57.4897 44.8833-63.647 37.7393-63.647C30.6289-63.647 24.4629-57.3887 24.4932-49.3149C24.4932-41.0933 30.5835-34.7236 37.7393-34.7236Z"/>
  </g>
  <g id="Thin-S" transform="matrix(1 0 0 1 794.868 696)">
   <path d="M56.1699-0.716792L106.867-0.716792C111.23-0.716792 113.344-2.00976 113.344-5.30859C113.344-15.0801 101.152-28.5762 81.5117-28.5762C61.8848-28.5762 49.6582-15.0801 49.6582-5.30859C49.6582-2.00976 51.7715-0.716792 56.1699-0.716792ZM81.582-35.4473C89.9258-35.4473 96.5195-42.6797 96.5195-52.0879C96.5195-61.0254 89.8203-68.3106 81.582-68.3106C73.3574-68.3106 66.5527-60.9707 66.623-52.0606C66.623-42.6797 73.252-35.4473 81.582-35.4473ZM15.3125-0.716792L47.6855-0.716792C43.5332-4.15236 46.8867-15.7031 55.3926-22.8047C51.1797-26.2285 45.3164-28.7441 37.4688-28.7441C20.3945-28.7441 9.76562-16.3809 9.76562-5.60156C9.76562-2.20508 11.5996-0.716792 15.3125-0.716792ZM37.5391-34.6035C44.8086-34.6035 50.5801-40.873 50.5801-49.082C50.5801-56.8691 44.7031-63.2266 37.5391-63.2266C30.3887-63.2266 24.4629-56.8281 24.5332-49.0547C24.5332-40.873 30.2832-34.6035 37.5391-34.6035Z"/>
  </g>
  <g id="Ultralight-S" transform="matrix(1 0 0 1 498.29 696)">
   <path d="M55.5342-0.911614L107.247-0.911614C110.974-0.911614 113.077-2.04053 113.077-5.31885C113.077-15.0493 100.947-28.4941 81.3887-28.4941C61.8335-28.4941 49.6582-15.0493 49.6582-5.31885C49.6582-2.04053 51.7612-0.911614 55.5342-0.911614ZM81.4795-35.3755C89.8643-35.3755 96.2734-42.5669 96.2734-51.9136C96.2734-60.6665 89.728-68.0542 81.4795-68.0542C73.2344-68.0542 66.5527-60.6528 66.6436-51.9067C66.6436-42.5669 73.0981-35.3755 81.4795-35.3755ZM14.8511-0.911614L48.5058-0.911614C44.2817-3.4551 47.061-14.9854 55.6694-22.3638C51.4668-26.0029 45.46-28.6826 37.3457-28.6826C20.333-28.6826 9.76562-16.4731 9.76562-5.61182C9.76562-2.23584 11.5791-0.911614 14.8511-0.911614ZM37.4365-34.542C44.7471-34.542 50.3648-40.7603 50.3648-48.9282C50.3648-56.5513 44.6108-63.0112 37.4365-63.0112C30.2656-63.0112 24.4629-56.541 24.5537-48.9214C24.5537-40.7603 30.1294-34.542 37.4365-34.542Z"/>
  </g>
 </g>
</svg>
