<?xml version="1.0" encoding="UTF-8"?>
<!--Generator: Apple Native CoreSVG 175.5-->
<!DOCTYPE svg
PUBLIC "-//W3C//DTD SVG 1.1//EN"
       "http://www.w3.org/Graphics/SVG/1.1/DTD/svg11.dtd">
<svg version="1.1" xmlns="http://www.w3.org/2000/svg" xmlns:xlink="http://www.w3.org/1999/xlink" width="19.0139" height="22.0412">
 <g>
  <rect height="22.0412" opacity="0" width="19.0139" x="0" y="0"/>
  <path d="M17.3814 21.0971L14.4497 17.6109C14.157 17.2662 14.1175 17.1832 13.9971 16.8261L13.7871 16.1651L15.3545 14.1846L15.8301 16.3944L18.7287 19.8328C19.6422 20.929 18.135 22.0084 17.3814 21.0971ZM10.2345 20.8065C9.62618 22.0313 7.83664 21.2777 8.48441 19.9532L10.4735 15.9147C10.6292 15.6117 10.8389 15.2858 11.0258 15.022L12.2924 13.2259L12.2052 12.9621C11.8647 11.9551 11.738 11.3426 11.6654 10.3501L11.4681 7.52843C11.3705 6.18495 12.1617 5.16776 13.5339 5.16776C14.5616 5.16776 15.2571 5.69305 16.2122 6.61496L17.6989 8.08915C18.1929 8.56247 18.3466 8.95892 18.3965 9.5881L18.5792 11.897C18.6269 12.4824 18.301 12.8831 17.755 12.9059C17.2173 12.9433 16.8811 12.6278 16.8312 12.007L16.6112 9.47385L15.8948 8.8322C15.6373 8.59756 15.2985 8.75321 15.3131 9.01299L15.473 11.1495C15.5581 12.2396 15.3028 12.7524 14.5574 13.6846L12.5807 16.1616C12.3814 16.4087 12.3586 16.5084 12.2734 16.6683ZM6.84397 8.9758L9.09479 8.9758L10.5134 7.40342L10.6816 9.76174L10.112 10.3189C9.79431 10.6365 9.51616 10.7341 8.94316 10.7341L6.84397 10.7341C6.24818 10.7341 5.85997 10.3936 5.85997 9.85801C5.85997 9.32451 6.25852 8.9758 6.84397 8.9758ZM12.4502 4.28517C11.2647 4.28517 10.3221 3.33221 10.3221 2.15917C10.3221 0.98402 11.2647 0.0310575 12.4502 0.0310575C13.6254 0.0310575 14.5783 0.98402 14.5783 2.15917C14.5783 3.33221 13.6254 4.28517 12.4502 4.28517Z" fill="#ac8e68"/>
  <path d="M0 20.8483C0 21.2961 0.36902 21.6547 0.816803 21.6547C1.25636 21.6547 1.62325 21.2961 1.62325 20.8483L1.62325 0.816787C1.62325 0.368999 1.25636 0 0.816803 0C0.36902 0 0 0.368999 0 0.816787Z" fill="#ff375f"/>
 </g>
</svg>
